<?xml version="1.0" encoding="UTF-8"?>
<svg width="1011px" height="448px" viewBox="0 0 1011 448" version="1.1" xmlns="http://www.w3.org/2000/svg" xmlns:xlink="http://www.w3.org/1999/xlink">
    <!-- Generator: Sketch 52.1 (67048) - http://www.bohemiancoding.com/sketch -->
    <title>Snake</title>
    <desc>Created with Sketch.</desc>
    <g id="Engine" stroke="none" stroke-width="1" fill="none" fill-rule="evenodd">
        <g id="Gear" transform="translate(3.000000, 0.000000)" fill="#D8D8D8">
            <path d="M184.715642,447 C163.570267,443.311682 143.43035,436.69787 124.72848,427.591055 L128.203753,388.008571 C129.266436,375.904868 120.315921,365.231403 108.212218,364.16872 C104.620521,363.853375 101.006367,364.425617 97.6877661,365.835093 L61.0192884,381.408934 C46.4076923,366.343714 33.8673289,349.258993 23.8573864,330.61387 L50.1308979,300.41393 C58.1058361,291.247181 57.1396827,277.351098 47.9729337,269.37616 C45.2515273,267.008576 41.9897097,265.346471 38.4747413,264.536222 L-0.752987083,255.493688 C-2.23400624,245.020821 -3,234.318129 -3,223.436569 C-3,213.029061 -2.29929303,202.785176 -0.942472188,192.749496 L38.4747413,183.663283 C50.3145142,180.934052 57.7000673,169.12354 54.9708359,157.283767 C54.160587,153.768799 52.4984818,150.506981 50.1308979,147.785575 L23.4183898,117.081029 C33.2934744,98.5040184 45.6749182,81.4618117 60.1118646,66.4051616 L97.6877661,82.3644118 C108.871157,87.1142229 121.787568,81.8987764 126.53738,70.715386 C127.946856,67.3967855 128.519098,63.7826314 128.203753,60.1909339 L124.616808,19.3364992 C143.137727,10.3052044 163.07071,3.71955585 183.995217,7.50510765e-14 L205.14017,35.2062408 C211.396043,45.6222374 224.911263,48.9946842 235.327259,42.7388115 C238.417276,40.8829403 241.003959,38.296257 242.85983,35.2062408 L264.004783,-4.26325641e-14 C284.92929,3.71955585 304.862273,10.3052044 323.383192,19.3364992 L319.796247,60.1909339 C318.733564,72.2946371 327.684079,82.9681023 339.787782,84.0307855 C343.379479,84.34613 346.993633,83.7738882 350.312234,82.3644118 L387.888141,66.4051674 C402.325082,81.4618117 414.706526,98.5040184 424.581613,117.081029 L397.869102,147.785575 C389.894164,156.952324 390.860317,170.848407 400.027066,178.823345 C402.748473,181.190929 406.01029,182.853034 409.525259,183.663283 L448.942472,192.749496 C450.299293,202.785176 451,213.029061 451,223.436569 C451,234.318129 450.234006,245.020821 448.752987,255.493688 L409.525259,264.536222 C397.685486,267.265453 390.299933,279.075965 393.029164,290.915738 C393.839413,294.430706 395.501518,297.692524 397.869102,300.41393 L424.14261,330.61387 C414.132671,349.258993 401.592308,366.343714 386.980714,381.408944 L350.312234,365.835093 C339.128843,361.085282 326.212432,366.300729 321.46262,377.484119 C320.053144,380.80272 319.480902,384.416874 319.796247,388.008571 L323.271519,427.591073 C304.56965,436.69787 284.429733,443.311682 263.284358,447 L242.85983,412.993264 C236.603957,402.577268 223.088737,399.204821 212.672741,405.460693 C209.582724,407.316565 206.996041,409.903248 205.14017,412.993264 L184.715642,447 Z" id="Combined-Shape"></path>
        </g>
        <g id="Head" transform="translate(88.000000, 68.000000)">
            <g id="Teeth" transform="translate(79.000000, 227.000000)" fill="#FFFFFF" stroke="#000000" stroke-width="3">
                <g id="Tooth">
                    <polygon id="Triangle" transform="translate(13.000000, 34.000000) scale(1, -1) translate(-13.000000, -34.000000) " points="13 0 26 68 0 68"></polygon>
                </g>
                <g id="Tooth" transform="translate(86.000000, 0.000000)">
                    <polygon id="Triangle" transform="translate(13.000000, 34.000000) scale(1, -1) translate(-13.000000, -34.000000) " points="13 0 26 68 0 68"></polygon>
                </g>
            </g>
            <g id="Tongue" transform="translate(124.000000, 236.000000)" fill="#B50000">
                <polyline id="Rectangle-2" points="0 0 22 0 22 95 11 62 0 95"></polyline>
            </g>
            <g id="HeadShape" transform="translate(20.000000, 0.000000)" fill="#4AD84A" stroke="#2F872F" stroke-width="4">
                <path d="M59.9354158,3.29979487 C55.8213253,2.71732639 51.6506722,2.64995759 47.5199157,3.09924659 C20.0675842,6.08514775 0.233623539,30.7602107 3.2195247,58.2125422 L18.9685621,203.008962 C18.9811011,203.123333 18.9811011,203.123333 18.9940318,203.237661 C21.7944158,227.809018 43.983596,245.457879 68.554953,242.657495 L114.932224,237.371902 C115.308455,237.329024 115.688338,237.329023 116.064569,237.3719 L162.44344,242.657494 C162.557686,242.670415 162.557686,242.670415 162.671977,242.682945 C187.258367,245.357127 209.357428,227.593772 212.03161,203.007382 L227.780503,58.2122893 C228.229785,54.0815941 228.162425,49.9110033 227.57998,45.7969718 C223.709091,18.4553857 198.40638,-0.571373258 171.064794,3.29951613 L115.498383,11.1663397 L59.9354158,3.29979487 Z" id="Shape"></path>
            </g>
            <g id="Nose" transform="translate(64.000000, 198.000000)" fill="#2F872F">
                <g id="shape">
                    <path d="M15.0823341,28.9753774 C23.4120772,28.5034022 30.1646681,22.1334227 30.1646681,14.74763 C30.1646681,7.36183729 23.4120772,7.4719752 15.0823341,7 C6.75259097,6.5280248 0,6.4178869 0,14.74763 C0,23.0773731 6.75259097,29.4473526 15.0823341,28.9753774 Z" id="Oval"></path>
                </g>
                <g id="shape" transform="translate(133.500000, 14.500000) scale(-1, 1) translate(-133.500000, -14.500000) translate(118.000000, 0.000000)">
                    <path d="M15.0823341,28.9753774 C23.4120772,28.5034022 30.1646681,22.1334227 30.1646681,14.74763 C30.1646681,7.36183729 23.4120772,7.4719752 15.0823341,7 C6.75259097,6.5280248 0,6.4178869 0,14.74763 C0,23.0773731 6.75259097,29.4473526 15.0823341,28.9753774 Z" id="Oval"></path>
                </g>
            </g>
            <g id="Eye" transform="translate(165.000000, 37.000000)">
                <ellipse id="Oval" stroke="#000000" stroke-width="3" fill="#FFFFFF" cx="56" cy="55.5" rx="56" ry="55.5"></ellipse>
                <circle id="Oval-2" fill="#000000" cx="49.5" cy="67.5" r="19.5"></circle>
            </g>
            <g id="Eye" transform="translate(56.000000, 92.500000) scale(-1, 1) translate(-56.000000, -92.500000) translate(0.000000, 37.000000)">
                <ellipse id="Oval" stroke="#000000" stroke-width="3" fill="#FFFFFF" cx="56" cy="55.5" rx="56" ry="55.5"></ellipse>
                <circle id="Oval-2" fill="#000000" cx="49.5" cy="67.5" r="19.5"></circle>
            </g>
        </g>
        <text id="Snake-Engine" font-family="Helvetica-Bold, Helvetica" font-size="143" font-weight="bold" fill="#000000">
            <tspan x="534" y="204">Snake</tspan>
            <tspan x="534" y="376">Engine</tspan>
        </text>
    </g>
</svg>